<svg xmlns="http://www.w3.org/2000/svg" xmlns:xlink="http://www.w3.org/1999/xlink" version="1.1" x="0px" y="0px" viewBox="0 0 100 125" style="enable-background:new 0 0 100 100;" xml:space="preserve"><g><path d="M87.9,9.4c-3.1,0-5.5,2.5-5.5,5.5v33.2H54.7V14.9c0-3.1-2.5-5.5-5.5-5.5c-3.1,0-5.5,2.5-5.5,5.5v33.2H18.7   V14.9c0-3.1-2.5-5.5-5.5-5.5s-5.5,2.5-5.5,5.5v69.2c0,3.1,2.5,5.5,5.5,5.5s5.5-2.5,5.5-5.5V59.2h24.9v24.9c0,3.1,2.5,5.5,5.5,5.5   c3.1,0,5.5-2.5,5.5-5.5V59.2h33.2c3.1,0,5.5-2.5,5.5-5.5V14.9C93.4,11.8,90.9,9.4,87.9,9.4z"/></g></svg>